<svg width="18" height="20" viewBox="0 0 18 20" fill="none" xmlns="http://www.w3.org/2000/svg">
<path d="M17.18 19.738H15.18C15.18 16.364 12.35 13.62 8.86896 13.62C5.38796 13.62 2.55896 16.365 2.55896 19.738H0.55896C0.55896 15.26 4.28796 11.62 8.86996 11.62C13.451 11.62 17.18 15.26 17.18 19.738Z" fill="#804284"/>
<path d="M8.86999 10.97C5.84699 10.97 3.38599 8.508 3.38599 5.485C3.38499 2.461 5.84599 0 8.86999 0C11.895 0 14.356 2.46 14.356 5.485C14.356 8.51 11.895 10.97 8.86999 10.97ZM8.86999 2C6.94799 2 5.38499 3.563 5.38499 5.485C5.38499 7.407 6.94799 8.97 8.86999 8.97C10.793 8.97 12.356 7.407 12.356 5.485C12.356 3.563 10.791 2 8.86999 2Z" fill="#804284"/>
</svg>
